<?xml version="1.0" encoding="UTF-8" standalone="no"?>
<svg
   xmlns:dc="http://purl.org/dc/elements/1.1/"
   xmlns:cc="http://creativecommons.org/ns#"
   xmlns:rdf="http://www.w3.org/1999/02/22-rdf-syntax-ns#"
   xmlns:svg="http://www.w3.org/2000/svg"
   xmlns="http://www.w3.org/2000/svg"
   xmlns:xlink="http://www.w3.org/1999/xlink"
   xmlns:sodipodi="http://sodipodi.sourceforge.net/DTD/sodipodi-0.dtd"
   xmlns:inkscape="http://www.inkscape.org/namespaces/inkscape"
   inkscape:export-ydpi="96"
   inkscape:export-xdpi="96"
   inkscape:export-filename="C:\Users\Alexey\Projects\Hive booking\analysis\timelines graphic.png"
   width="1920"
   height="1080"
   viewBox="0 0 507.99999 285.75001"
   version="1.1"
   id="svg8"
   inkscape:version="1.0 (4035a4fb49, 2020-05-01)"
   sodipodi:docname="timelines.svg">
  <defs
     id="defs2">
    <inkscape:path-effect
       effect="perspective-envelope"
       up_left_point="-87.51,19.162735"
       up_right_point="-48.18,19.162735"
       down_left_point="-75.91,60.35"
       down_right_point="-42.48,47.35"
       id="path-effect5014"
       is_visible="true"
       lpeversion="1"
       deform_type="perspective"
       horizontal_mirror="false"
       vertical_mirror="false"
       overflow_perspective="false" />
    <rect
       x="-5.8208332"
       y="-7.4083332"
       width="39.422916"
       height="282.04583"
       id="rect2356" />
  </defs>
  <sodipodi:namedview
     inkscape:snap-others="false"
     inkscape:guide-bbox="true"
     showguides="true"
     inkscape:snap-bbox-edge-midpoints="false"
     inkscape:bbox-nodes="true"
     inkscape:object-paths="false"
     inkscape:snap-nodes="false"
     inkscape:snap-intersection-paths="true"
     inkscape:snap-page="false"
     inkscape:snap-to-guides="true"
     inkscape:snap-grids="true"
     inkscape:snap-global="true"
     id="base"
     pagecolor="#ffffff"
     bordercolor="#666666"
     borderopacity="1.0"
     inkscape:pageopacity="1"
     inkscape:pageshadow="2"
     inkscape:zoom="0.73802085"
     inkscape:cx="873.98697"
     inkscape:cy="155.70706"
     inkscape:document-units="px"
     inkscape:current-layer="svg8"
     inkscape:document-rotation="0"
     showgrid="true"
     units="px"
     inkscape:snap-text-baseline="true"
     inkscape:snap-center="true"
     inkscape:snap-bbox="true"
     inkscape:snap-bbox-midpoints="true">
    <inkscape:grid
       visible="false"
       empspacing="4"
       originy="0"
       originx="0"
       dotted="false"
       snapvisiblegridlinesonly="false"
       id="grid2004"
       type="xygrid" />
    <sodipodi:guide
       id="guide2551"
       orientation="1,0"
       position="33.205209,12.435412" />
    <sodipodi:guide
       id="guide2553"
       orientation="1,0"
       position="475.05935,12.435413" />
  </sodipodi:namedview>
  <metadata
     id="metadata5">
    <rdf:RDF>
      <cc:Work
         rdf:about="">
        <dc:format>image/svg+xml</dc:format>
        <dc:type
           rdf:resource="http://purl.org/dc/dcmitype/StillImage" />
        <dc:title />
      </cc:Work>
    </rdf:RDF>
  </metadata>
  <text
     inkscape:label="title"
     xml:space="preserve"
     style="font-size:5.82083px;line-height:125%;font-family:Corbel;-inkscape-font-specification:'Corbel, Normal';text-align:center;text-decoration:none;text-decoration-line:none;text-decoration-color:#000000;text-anchor:middle;opacity:1;fill:#000000;stroke:#000000;stroke-width:0.264583;stroke-linecap:butt;stroke-linejoin:miter;stroke-opacity:1;stop-color:#000000"
     x="254.01564"
     y="26.309732"
     id="text5032"><tspan
       sodipodi:role="line"
       id="tspan5030"
       x="254.01564"
       y="26.309732"
       style="font-size:5.82083px;stroke:none;stroke-width:0.264583">slot cancellations 03/18 - 03/25</tspan></text>
  <g
     inkscape:label="logo"
     id="g5049"
     transform="matrix(0.76058824,0,0,0.75839437,90.207056,-111.31142)"
     style="stroke-width:1.31667">
    <text
       id="text4949"
       y="165.71162"
       x="228.22301"
       style="font-size:12.0185px;line-height:125%;font-family:Corbel;-inkscape-font-specification:'Corbel, Normal';text-align:center;text-decoration:none;text-decoration-line:none;text-decoration-color:#000000;text-anchor:middle;fill:#000000;stroke:#000000;stroke-width:0.348369;stroke-linecap:butt;stroke-linejoin:miter;stroke-opacity:1;stop-color:#000000"
       xml:space="preserve"><tspan
         style="font-style:normal;font-variant:normal;font-weight:normal;font-stretch:normal;font-size:12.0185px;font-family:Helvetica;-inkscape-font-specification:Helvetica;stroke-width:0.348369"
         y="165.71162"
         x="228.22301"
         id="tspan4947"
         sodipodi:role="line">Vancouver</tspan></text>
    <g
       style="stroke-width:1.8551"
       transform="matrix(0.70975673,0,0,0.70975673,254.9193,113.93857)"
       inkscape:label="hive"
       id="g5028">
      <text
         xml:space="preserve"
         style="font-size:5.82083px;line-height:125%;font-family:Corbel;-inkscape-font-specification:'Corbel, Normal';text-align:center;text-decoration:none;text-decoration-line:none;text-decoration-color:#000000;text-anchor:middle;fill:#000000;stroke:#000000;stroke-width:0.490829;stroke-linecap:butt;stroke-linejoin:miter;stroke-opacity:1;stop-color:#000000"
         x="-109.57561"
         y="61.980881"
         id="text4941"><tspan
           sodipodi:role="line"
           id="tspan4939"
           x="-109.57561"
           y="61.980881"
           style="font-style:normal;font-variant:normal;font-weight:normal;font-stretch:normal;font-size:5.82083px;font-family:Helvetica;-inkscape-font-specification:Helvetica;stroke:none;stroke-width:0.490829">the</tspan></text>
      <text
         xml:space="preserve"
         style="font-size:13.7583px;line-height:125%;font-family:Corbel;-inkscape-font-specification:'Corbel, Normal';text-align:center;text-decoration:none;text-decoration-line:none;text-decoration-color:#000000;letter-spacing:-0.529167px;text-anchor:middle;fill:#000000;stroke:#000000;stroke-width:0.490829;stroke-linecap:butt;stroke-linejoin:miter;stroke-opacity:1;stop-color:#000000"
         x="-101.40021"
         y="72.944778"
         id="text4945"><tspan
           sodipodi:role="line"
           id="tspan4943"
           x="-101.66479"
           y="72.944778"
           style="font-style:normal;font-variant:normal;font-weight:bold;font-stretch:normal;font-size:13.7583px;font-family:Helvetica;-inkscape-font-specification:'Helvetica Bold';stroke:none;stroke-width:0.490829">hive</tspan></text>
      <g
         id="g5006"
         transform="matrix(0.43412883,0,0,0.43412883,-62.88963,41.874011)"
         style="opacity:1;stroke:none;stroke-width:1.13061;stroke-miterlimit:4;stroke-dasharray:none"
         inkscape:path-effect="#path-effect5014">
        <path
           d="m -53.849336,35.327628 -1.78664,5.425151 -6.276667,1.58235 -4.841962,-4.519697 2.299819,-6.018187 6.58422,-0.880679 z"
           inkscape:transform-center-y="1.6242815e-06"
           inkscape:transform-center-x="4.3307718e-06"
           inkscape:randomized="0"
           inkscape:rounded="0"
           inkscape:flatsided="true"
           sodipodi:arg2="0.52359878"
           sodipodi:arg1="0"
           sodipodi:r2="6.4822922"
           sodipodi:r1="7.485106"
           sodipodi:cy="40.461697"
           sodipodi:cx="-67.593781"
           sodipodi:sides="6"
           id="path4951"
           style="fill:#267390;fill-opacity:1;stroke:none;stroke-width:1.13061;stroke-linecap:round;stroke-linejoin:round;stroke-miterlimit:4;stroke-dasharray:none"
           sodipodi:type="star" />
        <path
           d="m -51.499965,45.964164 -1.691005,5.551035 -5.949004,2.313403 -4.5834,-3.844974 2.16486,-6.180538 6.234364,-1.677716 z"
           sodipodi:type="star"
           style="fill:#8bc522;fill-opacity:1;stroke:none;stroke-width:1.13061;stroke-linecap:round;stroke-linejoin:round;stroke-miterlimit:4;stroke-dasharray:none"
           id="path4982"
           sodipodi:sides="6"
           sodipodi:cx="-67.593781"
           sodipodi:cy="55.278366"
           sodipodi:r1="7.485106"
           sodipodi:r2="6.4822922"
           sodipodi:arg1="0"
           sodipodi:arg2="0.52359878"
           inkscape:flatsided="true"
           inkscape:rounded="0"
           inkscape:randomized="0"
           inkscape:transform-center-x="4.3307718e-06"
           inkscape:transform-center-y="1.6242815e-06" />
        <path
           d="m -56.307885,24.196798 -1.889508,5.281142 -6.629852,0.77536 -5.121718,-5.260904 2.446246,-5.829661 6.961917,0 z"
           inkscape:transform-center-y="1.6242815e-06"
           inkscape:transform-center-x="4.3307718e-06"
           inkscape:randomized="0"
           inkscape:rounded="0"
           inkscape:flatsided="true"
           sodipodi:arg2="0.52359878"
           sodipodi:arg1="0"
           sodipodi:r2="6.4822922"
           sodipodi:r1="7.485106"
           sodipodi:cy="25.645027"
           sodipodi:cx="-67.593781"
           sodipodi:sides="6"
           id="path4986"
           style="fill:#8bc522;fill-opacity:1;stroke:none;stroke-width:1.13061;stroke-linecap:round;stroke-linejoin:round;stroke-miterlimit:4;stroke-dasharray:none"
           sodipodi:type="star" />
        <path
           d="m -46.247162,28.720879 -1.451387,4.764445 -5.115986,0.943 -3.92166,-4.392647 1.825169,-5.210742 5.343846,-0.356329 z"
           sodipodi:type="star"
           style="fill:#8bc522;fill-opacity:1;stroke:none;stroke-width:1.13061;stroke-linecap:round;stroke-linejoin:round;stroke-miterlimit:4;stroke-dasharray:none"
           id="path4988"
           sodipodi:sides="6"
           sodipodi:cx="-54.762169"
           sodipodi:cy="33.053364"
           sodipodi:r1="7.485106"
           sodipodi:r2="6.4822922"
           sodipodi:arg1="0"
           sodipodi:arg2="0.52359878"
           inkscape:flatsided="true"
           inkscape:rounded="0"
           inkscape:randomized="0"
           inkscape:transform-center-x="4.3307718e-06"
           inkscape:transform-center-y="1.6242815e-06" />
        <path
           d="m -63.196768,43.451111 -2.247686,6.282244 -7.888189,2.526445 -6.142028,-4.566652 2.979012,-7.099297 8.318838,-1.674004 z"
           inkscape:transform-center-y="1.6242815e-06"
           inkscape:transform-center-x="4.3307718e-06"
           inkscape:randomized="0"
           inkscape:rounded="0"
           inkscape:flatsided="true"
           sodipodi:arg2="0.52359878"
           sodipodi:arg1="0"
           sodipodi:r2="6.4822922"
           sodipodi:r1="7.485106"
           sodipodi:cy="47.870029"
           sodipodi:cx="-80.425392"
           sodipodi:sides="6"
           id="path4990"
           style="fill:#8bc522;fill-opacity:1;stroke:none;stroke-width:1.13061;stroke-linecap:round;stroke-linejoin:round;stroke-miterlimit:4;stroke-dasharray:none"
           sodipodi:type="star" />
        <path
           d="m -44.266049,38.517747 -1.379414,4.874349 -4.871592,1.560283 -3.731713,-3.833126 1.727036,-5.349689 5.08453,-1.023163 z"
           sodipodi:type="star"
           style="fill:#8bc522;fill-opacity:1;stroke:none;stroke-width:1.13061;stroke-linecap:round;stroke-linejoin:round;stroke-miterlimit:4;stroke-dasharray:none"
           id="path4992"
           sodipodi:sides="6"
           sodipodi:cx="-54.762169"
           sodipodi:cy="47.870029"
           sodipodi:r1="7.485106"
           sodipodi:r2="6.4822922"
           sodipodi:arg1="0"
           sodipodi:arg2="0.52359878"
           inkscape:flatsided="true"
           inkscape:rounded="0"
           inkscape:randomized="0"
           inkscape:transform-center-x="4.3307718e-06"
           inkscape:transform-center-y="1.6242815e-06" />
        <path
           d="m -66.187635,31.220413 -2.389948,6.113425 -8.383028,1.545196 -6.542173,-5.488172 3.190879,-6.872189 8.852383,-0.590279 z"
           inkscape:transform-center-y="1.6242815e-06"
           inkscape:transform-center-x="4.3307718e-06"
           inkscape:randomized="0"
           inkscape:rounded="0"
           inkscape:flatsided="true"
           sodipodi:arg2="0.52359878"
           sodipodi:arg1="0"
           sodipodi:r2="6.4822922"
           sodipodi:r1="7.485106"
           sodipodi:cy="33.053364"
           sodipodi:cx="-80.4254"
           sodipodi:sides="6"
           id="path4996"
           style="fill:#8bc522;fill-opacity:1;stroke:none;stroke-width:1.13061;stroke-linecap:round;stroke-linejoin:round;stroke-miterlimit:4;stroke-dasharray:none"
           sodipodi:type="star" />
      </g>
    </g>
  </g>
  <image
     sodipodi:absref="C:\Users\Alexey\Projects\Hive booking\analysis\timelines.png"
     xlink:href="analysis/timelines.png"
     y="69.585419"
     x="33.072914"
     width="441.85416"
     height="203.72917"
     preserveAspectRatio="none"
     style="image-rendering:optimizeQuality"
     id="image2307"
     inkscape:label="timelines"
     inkscape:svg-dpi="1" />
  <path
     d="m 38.367228,49.459384 0.264584,0.770831 0.264583,0.829949 0.264583,0.8777 0.264584,0.914081 0.264583,0.941368 0.267229,0.957285 0.264583,0.955011 0.264584,0.945915 0.264583,0.920903 0.264583,0.886796 0.264584,0.839045 0.264583,0.779925 0.264584,0.716259 0.264583,0.645768 0.264583,0.570733 0.264584,0.493422 0.264583,0.40929 0.264583,0.325158 0.264584,0.247849 0.264583,0.177359 0.264583,0.113692 0.267229,0.05229 h 0.264584 l 0.264583,-0.04093 0.264583,-0.07048 0.264584,-0.08868 0.264583,-0.0955 0.264583,-0.09778 0.264584,-0.08414 0.264583,-0.06367 0.264583,-0.03638 0.264584,-0.0046 0.264583,0.03411 0.264583,0.07276 0.264584,0.11824 0.264583,0.161442 0.264584,0.200098 0.264583,0.238753 0.267229,0.268312 0.264583,0.300147 0.264584,0.322884 0.264583,0.341075 0.264583,0.35017 0.264584,0.354719 0.264583,0.354717 0.264583,0.347898 0.264584,0.336528 0.264583,0.322884 0.264583,0.30242 0.264584,0.28423 0.264583,0.26149 0.264583,0.236479 0.264584,0.211467 0.264583,0.188728 0.264583,0.165991 0.26723,0.143251 0.264583,0.125061 0.264583,0.104596 0.264584,0.08868 0.264583,0.07276 0.264583,0.05912 0.264584,0.05002 0.264583,0.03638 0.264583,0.02957 0.264584,0.02046 0.264583,0.01364 0.264583,0.0091 h 0.264584 l 0.264583,-0.0046 0.264583,-0.0091 0.264584,-0.01819 0.267229,-0.02274 0.264583,-0.02955 0.264584,-0.03866 0.264583,-0.04775 0.264583,-0.05685 0.264584,-0.06821 0.264583,-0.07958 0.264583,-0.09095 0.264584,-0.104596 0.264583,-0.115965 0.264583,-0.12961 0.264584,-0.143251 0.264583,-0.152347 0.264583,-0.161442 0.264584,-0.170538 0.264583,-0.17736 0.264583,-0.177358 0.26723,-0.179633 0.264583,-0.175086 0.264583,-0.168263 0.264584,-0.156895 0.264583,-0.145525 0.264583,-0.127335 0.264584,-0.109144 0.264583,-0.09095 0.264583,-0.06821 0.264584,-0.05002 0.264583,-0.02729 0.264583,-0.0091 0.264584,0.0091 0.264583,0.01819 0.264583,0.02957 0.264584,0.03411 0.264583,0.03638 0.267229,0.02957 0.264583,0.02274 0.264584,0.01137 0.264583,-0.0046 0.264583,-0.02274 0.264584,-0.0432 0.264583,-0.06822 0.264584,-0.0864 0.264583,-0.109144 0.264583,-0.125062 0.264584,-0.143251 0.264583,-0.156895 0.264583,-0.163716 0.264584,-0.16599 0.264583,-0.163716 0.264583,-0.156895 0.267229,-0.140977 0.264584,-0.122787 0.264583,-0.09777 0.264583,-0.07049 0.264584,-0.03638 0.264583,-0.0068 0.264583,0.03183 0.264584,0.07048 0.264583,0.106871 0.264583,0.140977 0.264584,0.170537 0.264583,0.197825 0.264583,0.222835 0.264584,0.243301 0.264583,0.256943 0.264584,0.266038 0.264583,0.268312 0.267229,0.270588 0.264583,0.263764 0.264584,0.252396 0.264583,0.241027 0.264583,0.225109 0.264584,0.206919 0.264583,0.188729 0.264583,0.168263 0.264584,0.147799 0.264583,0.129609 0.264583,0.111419 0.264584,0.09323 0.264583,0.07731 0.264583,0.0614 0.264584,0.05002 0.264583,0.03866 0.264583,0.03183 0.26723,0.02274 0.264583,0.01819 0.264583,0.01137 0.264584,0.01137 0.264583,0.0068 0.264583,0.0091 0.264584,0.0068 0.264583,0.0068 0.264583,0.0068 0.264584,0.0091 0.264583,0.0091 0.264583,0.0091 0.264584,0.0091 0.264583,0.01137 0.264583,0.0091 0.264584,0.0068 0.267229,0.0068 0.264583,0.0046 0.264584,0.0022 0.264583,-0.0022 0.264583,-0.0068 0.264584,-0.01137 0.264583,-0.01591 0.264583,-0.02274 0.264584,-0.02957 0.264583,-0.03638 0.264583,-0.0432 0.264584,-0.05229 0.264583,-0.05912 0.264583,-0.06821 0.264584,-0.07503 0.264583,-0.08414 0.264583,-0.09323 0.26723,-0.09777 0.264583,-0.10687 0.264583,-0.111418 0.264584,-0.120513 0.264583,-0.125062 0.264583,-0.131882 0.264584,-0.138703 0.264583,-0.143253 0.264583,-0.152346 0.264584,-0.161443 0.264583,-0.168263 0.264583,-0.181907 0.264584,-0.193277 0.264583,-0.209191 0.264583,-0.225111 0.264584,-0.245574 0.264583,-0.268312 0.267229,-0.295599 0.264583,-0.325159 0.264584,-0.352444 0.264583,-0.388826 0.264583,-0.422933 0.264584,-0.466135 0.264583,-0.507066 0.264584,-0.552542 0.264583,-0.593471 0.264583,-0.641221 0.264584,-0.686698 0.264583,-0.738997 0.264583,-0.782199 0.264584,-0.823128 0.264583,-0.864057 0.264583,-0.90044 0.264584,-0.927724 0.267229,-0.955011 0.264583,-0.968653 0.264583,-0.975476 0.264584,-0.968654 0.264584,-0.957284 0.26458,-0.929998 0.26459,-0.88907 0.26458,-0.839045 0.26458,-0.777651 0.26459,-0.709437 0.264581,-0.627578 0.26458,-0.534352 0.26459,-0.432028 0.26458,-0.329707 0.26458,-0.227382 0.26459,-0.11824 0.26723,-0.01364 0.26458,0.09777 0.26458,0.202372 0.26459,0.295598 0.26458,0.382004 0.26458,0.457041 0.26459,0.525256 0.26458,0.586649 0.26458,0.632127 0.26459,0.663959 0.26458,0.686699 0.26458,0.698067 0.26459,0.698066 0.26458,0.686699 0.26458,0.668507 0.26459,0.643496 0.26458,0.613935 0.26723,0.575281 0.26458,0.536625 0.26458,0.488875 0.26459,0.445671 0.26458,0.404742 0.26458,0.359266 0.26459,0.318337 0.26458,0.279682 0.26458,0.238753 0.26459,0.204645 0.26458,0.175086 0.26458,0.147799 0.26459,0.12506 0.26458,0.100049 0.26458,0.08186 0.26459,0.06821 0.26458,0.05457 0.26723,0.04093 0.26458,0.03411 0.26459,0.02729 0.26458,0.02046 0.26458,0.01591 0.26459,0.01137 0.26458,0.0091 0.26458,0.0068 0.26459,0.0046 0.26458,0.0022 0.26458,0.0022 0.26459,0.0022 0.26458,0.0022 h 0.26458 l 0.26459,0.0022 h 0.26458 0.26723 0.26458 0.26459 0.26458 0.26458 l 0.26459,0.0022 h 0.26458 0.26458 l 0.26459,0.0022 h 0.26458 l 0.26458,0.0022 0.26459,0.0022 0.26458,0.0046 0.26458,0.0046 0.26459,0.0068 0.26458,0.0091 0.26458,0.01364 0.26723,0.01591 0.26459,0.02046 0.26458,0.02501 0.26458,0.03411 0.26459,0.04093 0.26458,0.05229 0.26458,0.06367 0.26459,0.07503 0.26458,0.09323 0.26458,0.109144 0.26459,0.129608 0.26458,0.152348 0.26458,0.175084 0.26459,0.200099 0.26458,0.227383 0.26458,0.25467 0.26459,0.281955 0.26722,0.311515 0.26459,0.341076 0.26458,0.363813 0.26458,0.3911 0.26459,0.411564 0.26458,0.429754 0.26458,0.447946 0.26459,0.459315 0.26458,0.463862 0.26458,0.46841 0.26459,0.466137 0.26458,0.459314 0.26458,0.447946 0.26459,0.432028 0.26458,0.413839 0.26458,0.391099 0.26723,0.368361 0.26459,0.341075 0.26458,0.313789 0.26458,0.28423 0.26459,0.256943 0.26458,0.229658 0.26458,0.204645 0.26459,0.175085 0.26458,0.152347 0.26458,0.131882 0.26459,0.111419 0.26458,0.09323 0.26458,0.07958 0.26459,0.06367 0.26458,0.05229 0.26458,0.04093 0.26459,0.03411 0.26723,0.02729 0.26458,0.02046 0.26458,0.01591 0.26459,0.01365 0.26458,0.0091 0.26458,0.0068 0.26459,0.0046 0.26458,0.0046 0.26458,0.0022 0.26459,0.0022 0.26458,0.0022 h 0.26458 0.26459 0.26458 0.26458 l 0.26459,-0.0022 0.26458,-0.0022 0.26723,-0.0022 0.26458,-0.0022 0.26459,-0.0046 0.26458,-0.0068 0.26458,-0.0068 0.26459,-0.0091 0.26458,-0.01364 0.26458,-0.01591 0.26459,-0.01819 0.26458,-0.02501 0.26458,-0.02957 0.26459,-0.03411 0.26458,-0.04093 0.26458,-0.05002 0.26459,-0.05684 0.26458,-0.06367 0.26723,-0.07503 0.26458,-0.08186 0.26459,-0.08868 0.26458,-0.09777 0.26458,-0.104596 0.26459,-0.111418 0.26458,-0.113691 0.26458,-0.11824 0.26459,-0.115965 0.26458,-0.115966 0.26458,-0.111419 0.26459,-0.102322 0.26458,-0.09323 0.26458,-0.08186 0.26459,-0.06821 0.26458,-0.05229 0.26458,-0.03411 0.26723,-0.01591 0.26458,0.0022 0.26459,0.01819 0.26458,0.03638 0.26458,0.05229 0.26459,0.06594 0.26458,0.07958 0.26458,0.08868 0.26459,0.09323 0.26458,0.100049 0.26458,0.102322 0.26459,0.100049 0.26458,0.100049 0.26458,0.0955 0.26459,0.08868 0.26458,0.08414 0.26458,0.07276 0.26723,0.06821 0.26459,0.05685 0.26458,0.05003 0.26458,0.04093 0.26459,0.03411 0.26458,0.02502 0.26458,0.01819 0.26459,0.0091 0.26458,0.0046 0.26458,-0.0046 0.26459,-0.01137 0.26458,-0.01819 0.26458,-0.02729 0.26459,-0.03411 0.26458,-0.04093 0.26458,-0.05229 0.26723,-0.05912 0.26459,-0.07049 0.26458,-0.08186 0.26458,-0.08868 0.26459,-0.100049 0.26458,-0.111417 0.26458,-0.120514 0.26459,-0.134156 0.26458,-0.143251 0.26458,-0.156896 0.26459,-0.16599 0.26458,-0.181906 0.26458,-0.19555 0.26459,-0.21374 0.26458,-0.231932 0.26458,-0.252396 0.26459,-0.275133 0.26723,-0.30242 0.26458,-0.334254 0.26458,-0.368361 0.26459,-0.402469 0.26458,-0.441124 0.26458,-0.479779 0.26459,-0.518435 0.26458,-0.559363 0.26458,-0.600293 0.26459,-0.6344 0.26458,-0.666233 0.26458,-0.688972 0.26459,-0.709436 0.26458,-0.72308 0.26458,-0.725353 0.26459,-0.716259 0.26458,-0.702614 0.26723,-0.677603 0.26458,-0.645769 0.26458,-0.598018 0.26459,-0.545721 0.26458,-0.488875 0.26458,-0.425208 0.26459,-0.361539 0.26458,-0.291051 0.26458,-0.21374 0.26459,-0.145525 0.26458,-0.07503 0.26458,-0.01364 0.26459,0.05003 0.26458,0.104598 0.26459,0.159167 0.26458,0.200097 0.26458,0.238754 0.26723,0.263765 0.26458,0.286503 0.26459,0.30242 0.26458,0.309242 0.26458,0.311515 0.26459,0.304694 0.26458,0.295598 0.26458,0.279682 0.26459,0.263765 0.26458,0.236478 0.26458,0.213741 0.26459,0.186455 0.26458,0.159168 0.26458,0.129608 0.26459,0.100049 0.26458,0.06821 0.26723,0.03866 0.26458,0.0091 0.26459,-0.01819 0.26458,-0.0432 0.26458,-0.07276 0.26459,-0.09777 0.26458,-0.11824 0.26458,-0.140977 0.26459,-0.159169 0.26458,-0.175085 0.26458,-0.193276 0.26459,-0.204645 0.26458,-0.213741 0.26458,-0.222835 0.26459,-0.227384 0.26458,-0.229657 0.26458,-0.234205 0.26723,-0.229657 0.26459,-0.227384 0.26458,-0.222835 0.26458,-0.216015 0.26459,-0.206919 0.26458,-0.197824 0.26458,-0.18418 0.26459,-0.170538 0.26458,-0.154621 0.26458,-0.138704 0.26459,-0.115966 0.26458,-0.09323 0.26458,-0.06822 0.26459,-0.04093 0.26458,-0.01137 0.26458,0.02274 0.26459,0.05912 0.26723,0.100048 0.26458,0.140978 0.26458,0.181907 0.26459,0.222836 0.26458,0.263765 0.26458,0.309241 0.26459,0.352445 0.26458,0.388825 0.26458,0.422934 0.26459,0.45704 0.26458,0.484328 0.26458,0.507064 0.26459,0.525257 0.26458,0.538899 0.26458,0.54572 0.26459,0.543446 0.26722,0.541173 0.26459,0.529803 0.26458,0.516161 0.26458,0.493422 0.26459,0.472958 0.26458,0.445672 0.26458,0.418385 0.26459,0.386553 0.26458,0.354718 0.26458,0.325158 0.26459,0.297873 0.26458,0.272859 0.26458,0.247848 0.26459,0.22511 0.26458,0.211467 0.26458,0.195549 0.26459,0.184182 0.26723,0.179632 0.26458,0.172812 0.26458,0.170537 0.26459,0.168263 0.26458,0.168265 0.26458,0.16599 0.26459,0.163716 0.26458,0.159168 0.26458,0.154621 0.26459,0.147799 0.26458,0.136431 0.26458,0.127334 0.26459,0.111419 0.26458,0.09777 0.26458,0.07958 0.26459,0.06367 0.26458,0.04775 0.26723,0.03411 0.26458,0.02046 0.26459,0.01137 0.26458,0.0022 h 0.26458 0.26459 l 0.26458,0.0046 0.26458,0.0091 0.26459,0.02046 0.26458,0.03411 0.26458,0.04775 0.26459,0.06367 0.26458,0.07958 0.26458,0.0955 0.26459,0.113692 0.26458,0.125062 0.26723,0.13643 0.26458,0.145525 0.26459,0.152347 0.26458,0.154621 0.26458,0.156894 0.26459,0.154621 0.26458,0.150073 0.26458,0.143251 0.26459,0.13643 0.26458,0.125062 0.26458,0.113692 0.26459,0.102322 0.26458,0.09095 0.26458,0.07958 0.26459,0.06821 0.26458,0.05685 0.26458,0.04548 0.26723,0.03638 0.26459,0.02501 0.26458,0.01819 0.26458,0.0091 0.26459,0.0022 0.26458,-0.0046 0.26458,-0.01364 0.26459,-0.01819 0.26458,-0.02501 0.26458,-0.02957 0.26459,-0.03638 0.26458,-0.04093 0.26458,-0.04775 0.26459,-0.05003 0.26458,-0.05229 0.26458,-0.05685 0.26459,-0.05685 0.26722,-0.05912 0.26459,-0.05912 0.26458,-0.05912 0.26458,-0.05457 0.26459,-0.05457 0.26458,-0.04548 0.26458,-0.0432 0.26459,-0.03411 0.26458,-0.02729 0.26458,-0.02046 0.26459,-0.01137 0.26458,-0.0046 0.26458,0.0068 0.26459,0.01364 0.26458,0.02046 0.26458,0.02729 0.26723,0.03183 0.26459,0.03638 0.26458,0.04093 0.26458,0.03865 0.26459,0.04093 0.26458,0.03865 0.26458,0.03411 0.26459,0.02729 0.26458,0.02274 0.26458,0.01138 0.26459,0.0022 0.26458,-0.0091 0.26458,-0.02274 0.26459,-0.03866 0.26458,-0.05457 0.26458,-0.07276 0.26459,-0.08868 0.26723,-0.109145 0.26458,-0.125061 0.26458,-0.147798 0.26459,-0.165991 0.26458,-0.181906 0.26458,-0.19555 0.26459,-0.211466 0.26458,-0.222837 0.26458,-0.231931 0.26459,-0.236479 0.26458,-0.238752 0.26458,-0.234205 0.26459,-0.227383 0.26458,-0.213741 0.26458,-0.200097 0.26459,-0.17736 0.26458,-0.156894 0.26723,-0.129609 0.26458,-0.102323 0.26459,-0.06821 0.26458,-0.03865 0.26458,-0.0091 0.26459,0.02046 0.26458,0.05002 0.26458,0.07503 0.26459,0.100049 0.26458,0.118239 0.26458,0.13643 0.26459,0.150073 0.26458,0.159169 0.26458,0.163716 0.26459,0.170537 0.26458,0.170538 0.26458,0.168264 0.26723,0.163716 0.26458,0.159169 0.26459,0.152345 0.26458,0.140979 0.26458,0.131882 0.26459,0.122787 0.26458,0.111418 0.26458,0.09777 0.26459,0.08641 0.26458,0.07276 0.26458,0.05912 0.26459,0.04775 0.26458,0.03411 0.26458,0.02274 0.26459,0.01137 0.26458,0.0022 0.26723,-0.0068 0.26458,-0.01364 0.26459,-0.01591 0.26458,-0.01819 0.26458,-0.02046 0.26459,-0.01591 0.26458,-0.01364 0.26458,-0.0068 h 0.26459 l 0.26458,0.0068 0.26458,0.01819 0.26459,0.02729 0.26458,0.03866 0.26458,0.04775 0.26459,0.05685 0.26458,0.06367 0.26458,0.07276 0.26723,0.07958 0.26459,0.08414 0.26458,0.08641 0.26458,0.08868 0.26459,0.09095 0.26458,0.08868 0.26458,0.08641 0.26459,0.08414 0.26458,0.07958 0.26458,0.07276 0.26459,0.06822 0.26458,0.0614 0.26458,0.05229 0.26459,0.04548 0.26458,0.03411 0.26458,0.02729 0.26459,0.01591 0.26723,0.0046 0.26458,-0.0091 0.26458,-0.01819 0.26459,-0.03183 0.26458,-0.04548 0.26458,-0.05912 0.26459,-0.07503 0.26458,-0.09095 0.26458,-0.104596 0.26459,-0.11824 0.26458,-0.131882 0.26458,-0.145525 0.26459,-0.156895 0.26458,-0.168263 0.26458,-0.175086 0.26459,-0.179633 0.26723,-0.184181 0.26458,-0.18418 0.26458,-0.179633 0.26459,-0.175085 0.26458,-0.168264 0.26458,-0.159168 0.26459,-0.150073 0.26458,-0.136431 0.26458,-0.127334 0.26459,-0.11824 0.26458,-0.113691 0.26458,-0.106871 0.26459,-0.109144 0.26458,-0.111418 0.26458,-0.118239 0.26459,-0.134157 0.26458,-0.147799 0.26723,-0.168264 0.26458,-0.188728 0.26458,-0.213741 0.26459,-0.236478 0.26458,-0.259218 0.26458,-0.277407 0.26459,-0.291051 0.26458,-0.302421 0.26458,-0.30242 0.26459,-0.297872 0.26458,-0.286503 0.26458,-0.263765 0.26459,-0.234204 0.26458,-0.200098 0.26458,-0.152348 0.26459,-0.104596 0.26458,-0.05457 0.26723,-0.0046 0.26458,0.05002 0.26459,0.102322 0.26458,0.152348 0.26458,0.195549 0.26459,0.234206 0.26458,0.263764 0.26458,0.286503 0.26459,0.306968 0.26458,0.316063 0.26458,0.318337 0.26459,0.318337 0.26458,0.309241 0.26458,0.300146 0.26459,0.284229 0.26458,0.266039 0.26723,0.252396 0.26458,0.234205 0.26459,0.218288 0.26458,0.204645 0.26458,0.188729 0.26459,0.179632 0.26458,0.168265 0.26458,0.159167 0.26459,0.154622 0.26458,0.147799 0.26458,0.140978 0.26459,0.13643 0.26458,0.131882 0.26458,0.127335 0.26459,0.120513 0.26458,0.113692 0.26458,0.104596 0.26723,0.09777 0.26459,0.08868 0.26458,0.07958 0.26458,0.06821 0.26459,0.05912 0.26458,0.04775 0.26458,0.03866 0.26459,0.02729 0.26458,0.01592 0.26458,0.0068 0.26459,-0.0046 0.26458,-0.01364 0.26458,-0.02046 0.26459,-0.02729 0.26458,-0.03638 0.26458,-0.04093 0.26459,-0.0432 0.26722,-0.05003 0.26459,-0.05002 0.26458,-0.05002 0.26458,-0.05003 0.26459,-0.05002 0.26458,-0.04548 0.26459,-0.0432 0.26458,-0.03866 0.26458,-0.03638 0.26459,-0.03183 0.26458,-0.02957 0.26458,-0.02957 0.26459,-0.02729 0.26458,-0.02501 0.26458,-0.02957 0.26459,-0.03183 0.26722,-0.03411 0.26459,-0.04093 0.26458,-0.0432 0.26458,-0.05002 0.26459,-0.05685 0.26458,-0.0614 0.26458,-0.06367 0.26459,-0.06821 0.26458,-0.06822 0.26458,-0.06594 0.26459,-0.06595 0.26458,-0.05685 0.26458,-0.05229 0.26459,-0.04093 0.26458,-0.02957 0.26458,-0.01364 0.26459,-0.0022 0.26723,0.01591 0.26458,0.03183 0.26458,0.04775 0.26459,0.06594 0.26458,0.07958 0.26458,0.09323 0.26459,0.104597 0.26458,0.115965 0.26458,0.122788 0.26459,0.127334 0.26458,0.127335 0.26458,0.125061 0.26459,0.122787 0.26458,0.113692 0.26458,0.102323 0.26459,0.0864 0.26458,0.07049 0.26723,0.05229 0.26458,0.02729 h 0.26459 l 0.26458,-0.02957 0.26458,-0.05912 0.26459,-0.09323 0.26458,-0.127334 0.26458,-0.16599 0.26459,-0.209194 0.26458,-0.250121 0.26458,-0.291051 0.26459,-0.336527 0.26458,-0.377458 0.26458,-0.420658 0.26459,-0.46841 0.26458,-0.511614 0.26723,-0.550268 0.26458,-0.591197 0.26459,-0.625304 0.26458,-0.659412 0.26458,-0.695793 0.26459,-0.725354 0.26458,-0.750366 0.26458,-0.775377 0.26459,-0.795843 0.26458,-0.816306 0.26458,-0.834497 0.26459,-0.848142 0.26458,-0.859509 0.26458,-0.870878 0.26459,-0.879975 0.26458,-0.882248 0.26458,-0.886795 0.26723,-0.884522 0.26458,-0.8777 0.26459,-0.868605 0.26458,-0.854962 0.26458,-0.832224 0.26459,-0.80039 0.26458,-0.766282 0.26458,-0.725354 0.26459,-0.673054 0.26458,-0.61621 0.26458,-0.543446 0.26459,-0.466136 0.26458,-0.384278 0.26458,-0.295599 0.26459,-0.200098 0.26458,-0.100049 0.26458,0.01137 0.26723,0.122786 0.26459,0.229658 0.26458,0.334254 0.26458,0.438849 0.26459,0.5389 0.26458,0.641221 0.26458,0.732175 0.26459,0.807211 0.26458,0.877701 0.26458,0.936819 0.26459,0.984572 0.26458,1.023225 0.26458,1.048238 0.26459,1.059606 0.26458,1.061882 0.26458,1.055059 0.26459,1.039143 0.26723,1.009582 0.26458,0.97775 0.26458,0.939094 0.26459,0.898164 0.26458,0.852689 0.26458,0.804937 0.26459,0.752639 0.26458,0.704889 0.26458,0.657138 0.26459,0.611662 0.26458,0.568459 0.26458,0.525256 0.26459,0.482053 0.26458,0.445671 0.26458,0.409291 0.26459,0.37973 0.26723,0.35017 0.26458,0.320612 0.26458,0.291049 0.26459,0.268314 0.26458,0.247848 0.26458,0.225109 0.26459,0.204646 0.26458,0.186454 0.26458,0.168264 0.26459,0.150073 0.26458,0.13643 0.26458,0.120513 0.26459,0.10687 0.26458,0.09323 0.26458,0.08186 0.26459,0.07049 0.26458,0.0614 0.26723,0.05229 0.26458,0.04548 0.26459,0.03638 0.26458,0.02957 0.26458,0.02729 0.26459,0.02046 0.26458,0.01591 0.26458,0.01364 0.26459,0.01137 0.26458,0.0091 0.26458,0.0068 0.26459,0.0046 0.26458,0.0046 0.26458,0.0022 0.26459,0.0022 0.26458,0.0022 h 0.26458 0.26723 l 0.26458,0.0022 h 0.26459 0.26458 0.26458 0.26459 0.26458 0.26458 0.26459 0.26458 0.26458 0.26459 0.26458 0.26458 0.26459 0.26458 0.26723 0.26458 l 0.26459,-0.0022 h 0.26458 l 0.26458,-0.0022 0.26459,-0.0022 0.26458,-0.0022 0.26458,-0.0046 0.26459,-0.0046 0.26458,-0.0046 0.26458,-0.0091 0.26459,-0.0091 0.26458,-0.01364 0.26458,-0.01592 0.26459,-0.02046 0.26458,-0.02502 0.26458,-0.02955 0.26723,-0.03866 0.26459,-0.0432 0.26458,-0.05003 0.26458,-0.05912 0.26459,-0.06594 0.26458,-0.07731 0.26458,-0.08641 0.26459,-0.0955 0.26458,-0.102322 0.26458,-0.111418 0.26459,-0.120513 0.26458,-0.125061 0.26458,-0.127335 0.26459,-0.131882 0.26458,-0.131882 0.26458,-0.129609 0.26459,-0.125062 0.26723,-0.118239 0.26458,-0.106869 0.26458,-0.100049 0.26459,-0.08641 0.26458,-0.07276 0.26458,-0.0614 0.26459,-0.04775 0.26458,-0.03411 0.26458,-0.02501 0.26459,-0.01819 0.26458,-0.01364 0.26458,-0.0091 0.26459,-0.01364 0.26458,-0.02046 0.26458,-0.02957 0.26459,-0.0432 0.26722,-0.05912 0.26459,-0.08186 0.26458,-0.104596 0.26458,-0.129609 0.26459,-0.152347 0.26458,-0.177359 0.26458,-0.202371 0.26459,-0.22511 0.26458,-0.2433 0.26458,-0.256943 0.26459,-0.268313 0.26458,-0.270586 0.26458,-0.270587 0.26459,-0.261491 0.26458,-0.245574 0.26458,-0.225109 0.26459,-0.200098 0.26723,-0.16599 0.26458,-0.127335 0.26458,-0.08186 0.26459,-0.03865 0.26458,0.0091 0.26458,0.05457 0.26459,0.102322 0.26458,0.1478 0.26458,0.193275 0.26459,0.229658 0.26458,0.263765 0.26458,0.293325 0.26459,0.313789 0.26458,0.329706 0.26458,0.338801 0.26459,0.341076 0.26458,0.336527 0.26723,0.327432 0.26458,0.31379 0.26459,0.295598 0.26458,0.268313 0.26458,0.2433 0.26459,0.216014 0.26458,0.184181 0.26458,0.152347 0.26459,0.118239 0.26458,0.08414 0.26458,0.05003 0.26459,0.01819 0.26458,-0.01364 0.26458,-0.0432 0.26459,-0.07731 0.26458,-0.106871 0.26723,-0.134156 0.26458,-0.161442 0.26459,-0.186455 0.26458,-0.209192 0.26458,-0.231931 0.26459,-0.252396 0.26458,-0.270587 0.26458,-0.284229 0.26459,-0.297872 0.26458,-0.309242 0.26458,-0.320611 0.26459,-0.325158 0.26458,-0.329706 0.26458,-0.334254 0.26459,-0.336527 0.26458,-0.334254 0.26458,-0.336528 0.26723,-0.336527 0.26459,-0.336528 0.26458,-0.336528 0.26458,-0.338801 0.26459,-0.343349 0.26458,-0.35017 0.26458,-0.356993 0.26459,-0.368361 0.26458,-0.384278 0.26458,-0.397921 0.26459,-0.418386 0.26458,-0.443398 0.26458,-0.466136 0.26459,-0.491148 0.26458,-0.518434 0.26458,-0.545721 0.26459,-0.57528 0.26722,-0.60484 0.26459,-0.632125 0.26458,-0.657139 0.26458,-0.679876 0.26459,-0.700343 0.26458,-0.716258 0.26458,-0.7299 0.26459,-0.736723 0.26458,-0.738996 0.26458,-0.736723 0.26459,-0.727627 0.26458,-0.711711 0.26458,-0.688971 0.26459,-0.661686 0.26458,-0.629853 0.26458,-0.588922 0.26459,-0.545721 0.26723,-0.491148 0.26458,-0.434303 0.26458,-0.375183 0.26459,-0.309241 0.26458,-0.241027 0.26458,-0.170537 0.26459,-0.08641 0.26458,-0.01137 0.26458,0.06594 0.26459,0.143252 0.26458,0.220561 0.26458,0.297874 0.26459,0.377456 0.26458,0.447945 0.26458,0.511613 0.26459,0.573006 0.26723,0.627579 0.26458,0.675329 0.26458,0.720805 0.26459,0.750366 0.26458,0.775378 0.26458,0.793568 0.26459,0.80039 0.26458,0.80039 0.26458,0.78902 0.26459,0.775378 0.26458,0.748092 0.26458,0.716258 0.26459,0.679876 0.26458,0.6344 0.26458,0.579828 0.26459,0.52753 0.26458,0.470684 0.26723,0.40929 0.26458,0.352445 0.26459,0.28423 0.26458,0.225109 0.26458,0.168264 0.26459,0.115965 0.26458,0.06594 0.26458,0.02502 0.26459,-0.01591 0.26458,-0.04775 0.26458,-0.06821 0.26459,-0.08414 0.26458,-0.09095 0.26458,-0.0955 0.26459,-0.08868 0.26458,-0.07731 0.26458,-0.0614 0.26723,-0.03865 0.26459,-0.01591 0.26458,0.01137 0.26458,0.04775 0.26459,0.07731 0.26458,0.113692 0.26458,0.1478 0.26459,0.181906 0.26458,0.216014 0.26458,0.25467 0.26459,0.286504 0.26458,0.316063 0.26458,0.345622 0.26459,0.370635 0.26458,0.393373 0.26458,0.411565 0.26723,0.422933 0.26458,0.429755 0.26459,0.429754 0.26458,0.427482 0.26458,0.413838 0.26459,0.393373 0.26458,0.370635 0.26458,0.338802 0.26459,0.304693 0.26458,0.263765 0.26458,0.218289 0.26459,0.168264 0.26458,0.122787 0.26458,0.07276 0.26459,0.02729 0.26458,-0.01819 0.26458,-0.0614 0.26723,-0.102323 0.26459,-0.131882 0.26458,-0.156894 0.26458,-0.175086 0.26459,-0.188728 0.26458,-0.19555 0.26458,-0.193276 0.26459,-0.188728 0.26458,-0.177359 0.26458,-0.161443 0.26459,-0.145525 0.26458,-0.125061 0.26458,-0.10687 0.26459,-0.08868 0.26458,-0.07276 0.26458,-0.0614 0.26459,-0.05229 0.26723,-0.04548 0.26458,-0.04775 0.26458,-0.05003 0.26459,-0.05912 0.26458,-0.07048 0.26458,-0.08414 0.26459,-0.102323 0.26458,-0.120513 0.26458,-0.140978 0.26459,-0.159168 0.26458,-0.179633 0.26458,-0.197824 0.26459,-0.218288 0.26458,-0.234205 0.26458,-0.252396 0.26459,-0.266039 0.26723,-0.284229 0.26458,-0.297872 0.26458,-0.316063 0.26459,-0.329706 0.26458,-0.345624 0.26458,-0.359265 0.26459,-0.372909 0.26458,-0.388826 0.26458,-0.402468 0.26459,-0.411565 0.26458,-0.420659 0.26458,-0.427481 0.26459,-0.429754 0.26458,-0.434303 0.26458,-0.429755 0.26459,-0.425207 0.26458,-0.418385 0.26723,-0.404744 0.26458,-0.388825 0.26458,-0.370636 0.26459,-0.347897 0.26458,-0.325158 0.26458,-0.297872 0.26459,-0.268313 0.26458,-0.238752 0.26458,-0.202371 0.26459,-0.16599 0.26458,-0.129609 0.26458,-0.09323 0.26459,-0.05685 0.26458,-0.01364 0.26458,0.02501 0.26459,0.06367 0.26458,0.100049 0.26723,0.131882 0.26458,0.163716 0.26459,0.193276 0.26458,0.218289 0.26458,0.236478 0.26459,0.252395 0.26458,0.263766 0.26458,0.268312 0.26459,0.270586 0.26458,0.26604 0.26458,0.261491 0.26459,0.250122 0.26458,0.238752 0.26458,0.222836 0.26459,0.204645 0.26458,0.18418 0.26723,0.16599 0.26458,0.145525 0.26459,0.125062 0.26458,0.104597 0.26458,0.08186 0.26459,0.05912 0.26458,0.03865 0.26458,0.01819 0.26459,-0.0046 0.26458,-0.02729 0.26458,-0.05229 0.26459,-0.07276 0.26458,-0.09777 0.26458,-0.120513 0.26459,-0.140978 0.26458,-0.16599 0.26458,-0.188728 0.26723,-0.209194 0.26459,-0.227383 0.26458,-0.243299 0.26458,-0.259218 0.26459,-0.270586 0.26458,-0.277408 0.26458,-0.281956 0.26459,-0.279682 0.26458,-0.277408 0.26458,-0.266038 0.26459,-0.252396 0.26458,-0.231931 0.26458,-0.209193 0.26459,-0.184181 0.26458,-0.15462 0.26458,-0.125061 0.26459,-0.08868 0.26723,-0.05229 0.26458,-0.02046 0.26458,0.01364 0.26459,0.04093 0.26458,0.07048 0.26458,0.0955 0.26459,0.113692 0.26458,0.129608 0.26458,0.13643 0.26459,0.140978 0.26458,0.138704 0.26458,0.134156 0.26459,0.11824 0.26458,0.102323 0.26458,0.08186 0.26459,0.05912 0.26722,0.03183 h 0.26459 l 0.26458,-0.02957 0.26458,-0.0614 0.26459,-0.09323 0.26458,-0.125062 0.26458,-0.154621 0.26459,-0.193276 0.26458,-0.220561 0.26458,-0.252396 0.26459,-0.279681 0.26458,-0.306969 0.26458,-0.336527 0.26459,-0.366087 0.26458,-0.393374 0.26458,-0.416111 0.26459,-0.438851 0.26723,-0.463862 0.26458,-0.4866 0.26458,-0.507066 0.26459,-0.52753 0.26458,-0.543447 0.26458,-0.559364 0.26459,-0.570731 0.26458,-0.579828 0.26458,-0.588924 0.26459,-0.593471 0.26458,-0.591196 0.26458,-0.588923 0.26459,-0.582103 0.26458,-0.568459 0.26458,-0.552542 0.26459,-0.532077 0.26458,-0.509338 0.26723,-0.484327 0.26458,-0.454767 0.26459,-0.42066 0.26458,-0.388826 0.26458,-0.352444 0.26459,-0.322885 0.26458,-0.288776 0.26458,-0.259218 0.26459,-0.229657 0.26458,-0.204645 0.26458,-0.181907 0.26459,-0.163716 0.26458,-0.147799 0.26458,-0.13643 0.26459,-0.122787 0.26458,-0.115966 0.26458,-0.104597 0.26723,-0.0955 0.26459,-0.08186 0.26458,-0.07049 0.26458,-0.04775 0.26459,-0.02501 0.26458,0.0046 0.26458,0.03866 0.26459,0.07731 0.26458,0.120514 0.26458,0.179632 0.26459,0.229658 0.26458,0.286503 0.26458,0.343349 0.26459,0.400195 0.26458,0.457041 0.26458,0.511612 0.26723,0.554816 0.26458,0.595745 0.26459,0.625305 0.26458,0.648042 0.26458,0.659413 0.26459,0.661686 0.26458,0.65259 0.26458,0.6344 0.26459,0.602566 0.26458,0.568459 0.26458,0.516161 0.26459,0.459314 0.26458,0.400195 0.26459,0.336528 0.26458,0.270586 0.26458,0.202371 0.26459,0.129609 0.26722,0.06367 h 0.26459 l 0.26458,-0.05685 0.26458,-0.10687 0.26459,-0.150073 0.26458,-0.191003 0.26458,-0.220561 0.26459,-0.238753 0.26458,-0.250122 0.26458,-0.252395 0.26459,-0.250122 0.26458,-0.236479 0.26458,-0.220562 0.26459,-0.197824 0.26458,-0.170537 0.26458,-0.143252 0.26459,-0.109144 0.26723,-0.07503 0.26458,-0.04093 0.26458,-0.01137 0.26459,0.01819 0.26458,0.04775 0.26458,0.07049 0.26459,0.0955 0.26458,0.111418 0.26458,0.125062 0.26459,0.131882 0.26458,0.13643 0.26458,0.131883 0.26459,0.12506 0.26458,0.109145 0.26458,0.09323 0.26459,0.06594 0.26723,0.03865 0.26458,0.0022 0.26458,-0.03638 0.26459,-0.07503 0.26458,-0.115965 0.26458,-0.156896 0.26459,-0.197823 0.26458,-0.234205 0.26458,-0.266039 0.26459,-0.291051 0.26458,-0.306968 0.26458,-0.316063 0.26459,-0.316063 0.26458,-0.300146 0.26458,-0.279681 0.26459,-0.247848 0.26458,-0.20692 0.26723,-0.159168 0.26458,-0.10687 0.26459,-0.04548 0.26458,0.01591 0.26458,0.07276 0.26459,0.127335 0.26458,0.177359 0.26458,0.220563 0.26459,0.259217 0.26458,0.281955 0.26458,0.295599 0.26459,0.295598 0.26458,0.288777 0.26458,0.268313 0.26459,0.231931 0.26458,0.193276 0.26458,0.145525 0.26723,0.08868 0.26458,0.02729 0.26459,-0.03638 0.26458,-0.111418 0.26458,-0.17736 0.26459,-0.247848 0.26458,-0.311515 0.26458,-0.377457 0.26459,-0.43885 0.26458,-0.49797 0.26458,-0.550268 0.26459,-0.59347 0.26458,-0.632126 0.26458,-0.661686 0.26459,-0.691247 0.26458,-0.707162 0.26723,-0.713985 0.26458,-0.718531 0.26459,-0.71171 0.26458,-0.698067 0.26458,-0.679877 0.26459,-0.654865 0.26458,-0.62303 0.26458,-0.591197 0.26459,-0.552542 0.26458,-0.516161 0.26458,-0.46841 0.26459,-0.427481 0.26458,-0.386551 0.26458,-0.34335 0.26459,-0.302419 0.26458,-0.263765 0.26458,-0.220563 0.26723,-0.181906 0.26459,-0.143251 0.26458,-0.109145 0.26458,-0.07048 0.26459,-0.03638 0.26458,0.0068 0.26458,0.04093 0.26459,0.07958 0.26458,0.113691 0.26458,0.152347 0.26459,0.188729 0.26458,0.227383 0.26458,0.256943 0.26459,0.288777 0.26458,0.31379 0.26458,0.334253 0.26459,0.347897 0.26723,0.354718 0.26458,0.352445 0.26458,0.3388 0.26459,0.316064 0.26458,0.281955 0.26458,0.234206 0.26459,0.172811 0.26458,0.102322 0.26458,0.02274 0.26459,-0.06594 0.26458,-0.16599 0.26458,-0.275135 0.26459,-0.391099 0.26458,-0.502517 0.26458,-0.613936 0.26459,-0.720806 0.26723,-0.825402 0.26458,-0.929999 0.26458,-1.011856 0.26459,-1.077798 0.26458,-1.130095 0.26458,-1.157382 0.26459,-1.166477 0.26458,-1.148287 0.26458,-1.098263 0.26459,-1.027774 0.26458,-0.927723 0.26458,-0.80039 0.26459,-0.648043 0.26458,-0.443398 0.26458,-0.238753 0.26459,-0.01137 0.26458,0.227383 0.26723,0.47978 0.26458,0.745818 0.26458,1.036868 0.26459,1.293812 0.26458,1.54166 0.26458,1.778139 0.26459,1.989605 0.26458,2.185156 0.26458,2.357967 V 69.85 h -0.26458 -0.26458 -0.26459 -0.26458 -0.26458 -0.26459 -0.26458 -0.26458 -0.26723 -0.26458 -0.26459 -0.26458 -0.26458 -0.26459 -0.26458 -0.26458 -0.26459 -0.26458 -0.26458 -0.26459 -0.26458 -0.26458 -0.26459 -0.26458 -0.26458 -0.26723 -0.26459 -0.26458 -0.26458 -0.26459 -0.26458 -0.26458 -0.26459 -0.26458 -0.26458 -0.26459 -0.26458 -0.26458 -0.26459 -0.26458 -0.26458 -0.26723 -0.26459 -0.26458 -0.26458 -0.26459 -0.26458 -0.26458 -0.26459 -0.26458 -0.26458 -0.26459 -0.26458 -0.26458 -0.26459 -0.26458 -0.26458 -0.26459 -0.26723 -0.26458 -0.26458 -0.26459 -0.26458 -0.26458 -0.26459 -0.26458 -0.26458 -0.26459 -0.26458 -0.26458 -0.26459 -0.26458 -0.26458 -0.26459 -0.26458 -0.26723 -0.26458 -0.26459 -0.26458 -0.26458 -0.26459 -0.26458 -0.26458 -0.26459 -0.26458 -0.26458 -0.26459 -0.26458 -0.26458 -0.26459 -0.26458 -0.26723 -0.26458 -0.26458 -0.26459 -0.26458 -0.26458 -0.26459 -0.26458 -0.26458 -0.26459 -0.26458 -0.26458 -0.26459 -0.26458 -0.26458 -0.26459 -0.26458 -0.26723 -0.26458 -0.26459 -0.26458 -0.26458 -0.26459 -0.26458 -0.26458 -0.26459 -0.26458 -0.26458 -0.26459 -0.26458 -0.26458 -0.26459 -0.26458 -0.26458 -0.26723 -0.26459 -0.26458 -0.26458 -0.26459 -0.26458 -0.26458 -0.26459 -0.26458 -0.26458 -0.26459 -0.26458 -0.26458 -0.26459 -0.26458 -0.26458 -0.26723 -0.26459 -0.26458 -0.26458 -0.26459 -0.26458 -0.26458 -0.26459 -0.26458 -0.26458 -0.26459 -0.26458 -0.26458 -0.26459 -0.26458 -0.26458 -0.26459 -0.26722 -0.26459 -0.26458 -0.26458 -0.26459 -0.26458 -0.26459 -0.26458 -0.26458 -0.26459 -0.26458 -0.26458 -0.26459 -0.26458 -0.26458 -0.26459 -0.26458 -0.26723 -0.26458 -0.26458 -0.26459 -0.26458 -0.26458 -0.26459 -0.26458 -0.26458 -0.26459 -0.26458 -0.26458 -0.26459 -0.26458 -0.26458 -0.26459 -0.26723 -0.26458 -0.26458 -0.26459 -0.26458 -0.26458 -0.26459 -0.26458 -0.26458 -0.26459 -0.26458 -0.26458 -0.26459 -0.26458 -0.26458 -0.26459 -0.26458 -0.26723 -0.26458 -0.26459 -0.26458 -0.26458 -0.26459 -0.26458 -0.26458 -0.26459 -0.26458 -0.26458 -0.26459 -0.26458 -0.26458 -0.26459 -0.26458 -0.26458 -0.26723 -0.26459 -0.26458 -0.26458 -0.26459 -0.26458 -0.26458 -0.26459 -0.26458 -0.26458 -0.26459 -0.26458 -0.26458 -0.26459 -0.26458 -0.26458 -0.26459 -0.26722 -0.26459 -0.26458 -0.26458 -0.26459 -0.26458 -0.26458 -0.26459 -0.26458 -0.26458 -0.26459 -0.26458 -0.26458 -0.26459 -0.26458 -0.26458 -0.26723 -0.26459 -0.26458 -0.26458 -0.26459 -0.26458 -0.26458 -0.26459 -0.26458 -0.26458 -0.26459 -0.26458 -0.26458 -0.26459 -0.26458 -0.26458 -0.26459 -0.26723 -0.26458 -0.26458 -0.26459 -0.26458 -0.26458 -0.26459 -0.26458 -0.26458 -0.26459 -0.26458 -0.26458 -0.26459 -0.26458 -0.26458 -0.26459 -0.26458 -0.26723 -0.26458 -0.26459 -0.26458 -0.26458 -0.26459 -0.26458 -0.26458 -0.26459 -0.26458 -0.26458 -0.26459 -0.26458 -0.26458 -0.26459 -0.26458 -0.26723 -0.26458 -0.26459 -0.26458 -0.26458 -0.26459 -0.26458 -0.26458 -0.26459 -0.26458 -0.26458 -0.26459 -0.26458 -0.26458 -0.26459 -0.26458 -0.26458 -0.26723 -0.26458 -0.26459 -0.26458 -0.26458 -0.26459 -0.26458 -0.26458 -0.26459 -0.26458 -0.26458 -0.26459 -0.26458 -0.26458 -0.26459 -0.26458 -0.26458 -0.26723 -0.26459 -0.26458 -0.26458 -0.26459 -0.26458 -0.26458 -0.26459 -0.26458 -0.26458 -0.26459 -0.26458 -0.26458 -0.26459 -0.26458 -0.26458 -0.26723 -0.26459 -0.26458 -0.26458 -0.26459 -0.26458 -0.26458 -0.26459 -0.26458 -0.26458 -0.26459 -0.26458 -0.26458 -0.26459 -0.26458 -0.26458 -0.26459 -0.26723 -0.26458 -0.26458 -0.26459 -0.26458 -0.26458 -0.26459 -0.26458 -0.26458 -0.26459 -0.26458 -0.26458 -0.26459 -0.26458 -0.26458 -0.26459 -0.26458 -0.26723 -0.26458 -0.26458 -0.26459 -0.26458 -0.26458 -0.26459 -0.26458 -0.26458 -0.26459 -0.26458 -0.26458 -0.26459 -0.26458 -0.26458 -0.26459 -0.26723 -0.26458 -0.26458 -0.26459 -0.26458 -0.26458 -0.26459 -0.26458 -0.26458 -0.26459 -0.26458 -0.26458 -0.26459 -0.26458 -0.26458 -0.26459 -0.26458 -0.26723 -0.26458 -0.26459 -0.26458 -0.26458 -0.26459 -0.26458 -0.26458 -0.26459 -0.26458 -0.26458 -0.26459 -0.26458 -0.26458 -0.26459 -0.26458 -0.26458 -0.26723 -0.26459 -0.26458 -0.26458 -0.26459 -0.26458 -0.26458 -0.26459 -0.26458 -0.26458 -0.26459 -0.26458 -0.26458 -0.26459 -0.26458 -0.26458 -0.26723 -0.26459 -0.26458 -0.26458 -0.26459 -0.26458 -0.26458 -0.26459 -0.26458 -0.26458 -0.26459 -0.26458 -0.26458 -0.26459 -0.26458 -0.26458 -0.26459 -0.26722 -0.26459 -0.26458 -0.26458 -0.26459 -0.26458 -0.26458 -0.26459 -0.26458 -0.26458 -0.26459 -0.26458 -0.26458 -0.26459 -0.26458 -0.26458 -0.26459 -0.26723 -0.26458 -0.26458 -0.26459 -0.26458 -0.26458 -0.26459 -0.26458 -0.26458 -0.26459 -0.26458 -0.26458 -0.26459 -0.26458 -0.26458 -0.26459 -0.26458 -0.26723 -0.26458 -0.26459 -0.26458 -0.26458 -0.26459 -0.26458 -0.26458 -0.26459 -0.26458 -0.26458 -0.26459 -0.26458 -0.26458 -0.26459 -0.26458 -0.26723 -0.26458 -0.26459 -0.26458 -0.26458 -0.26459 -0.26458 -0.26458 -0.26459 -0.26458 -0.26458 -0.26459 -0.26458 -0.26458 -0.26459 -0.26458 -0.26458 -0.26723 -0.26459 -0.26458 -0.26458 -0.26459 -0.26458 -0.26458 -0.26459 -0.26458 -0.26458 -0.26459 -0.26458 -0.26458 -0.26459 -0.26458 -0.26458 -0.26459 -0.26722 -0.26459 -0.26458 -0.26458 -0.26459 -0.26458 -0.26458 -0.26459 -0.26458 -0.26458 -0.26459 -0.26458 -0.26458 -0.26459 -0.26458 -0.26458 -0.26723 -0.26459 -0.26458 -0.26458 -0.26459 -0.26458 -0.26458 -0.26459 -0.26458 -0.26458 -0.26459 -0.26458 -0.26458 -0.26459 -0.26458 -0.26458 -0.26459 -0.26723 -0.26458 -0.26458 -0.26459 -0.26458 -0.26458 -0.26459 -0.26458 -0.26458 -0.26459 -0.26458 -0.26458 -0.26459 -0.26458 -0.26458 -0.26459 -0.26458 -0.26723 -0.26458 -0.26459 -0.26458 -0.26458 -0.26459 -0.26458 -0.26458 -0.26459 -0.26458 -0.26458 -0.26459 -0.26458 -0.26458 -0.26459 -0.26458 -0.26723 -0.26458 -0.26458 -0.26459 -0.26458 -0.26458 -0.26459 -0.26458 -0.26458 -0.26459 -0.26458 -0.26458 -0.26459 -0.26458 -0.26458 -0.26459 -0.26458 -0.26723 -0.26458 -0.26459 -0.26458 -0.26458 -0.26459 -0.26458 -0.26458 -0.26459 -0.26458 -0.26458 -0.26459 -0.26458 -0.26458 -0.26459 -0.26458 -0.26458 -0.26723 -0.26459 -0.26458 -0.26458 -0.26459 -0.26458 -0.26458 -0.26459 -0.26458 -0.26458 -0.26459 -0.26458 -0.26458 -0.26459 -0.26458 -0.26458 -0.26723 -0.26459 -0.26458 -0.26458 -0.26459 -0.26458 -0.26458 -0.26459 -0.26458 -0.26458 -0.26459 -0.26458 -0.26458 -0.26459 -0.26458 -0.26458 -0.26459 -0.26723 -0.26458 -0.26458 -0.26459 -0.26458 -0.26458 -0.26459 -0.26458 -0.26458 -0.26459 -0.26458 -0.26458 -0.26459 -0.26458 -0.26458 -0.26459 -0.26458 -0.26723 -0.26458 -0.26458 -0.26459 -0.26458 -0.26458 -0.26459 -0.26458 -0.26458 -0.26459 -0.26458 -0.26458 -0.26459 -0.26458 -0.26458 -0.26459 -0.26458 -0.26723 -0.26458 -0.26459 -0.26458 -0.26458 -0.26459 -0.26458 -0.26458 -0.26459 -0.26458 -0.26458 -0.26459 -0.26458 -0.26458 -0.26459 -0.26458 -0.26723 -0.26458 -0.26459 -0.26458 -0.26458 -0.26459 -0.26458 -0.26458 -0.26459 -0.26458 -0.26458 -0.26459 -0.26458 -0.26458 -0.26459 -0.26458 -0.26458 -0.26723 -0.26459 -0.26458 -0.26458 -0.26459 -0.26458 -0.26458 -0.26459 -0.26458 -0.26458 -0.26459 -0.26458 -0.26458 -0.26459 -0.26458 -0.26458 -0.26459 -0.26722 -0.26459 -0.26458 -0.26458 -0.26459 -0.26458 -0.26458 -0.26459 -0.26458 -0.26458 -0.26459 -0.26458 -0.26459 -0.26458 -0.26458 -0.26459 -0.26722 -0.26459 -0.26458 -0.26458 -0.26459 -0.26458 -0.26458 -0.26459 -0.26458 -0.26458 -0.26459 -0.26458 -0.26458 -0.26459 -0.26458 -0.26458 -0.26459 -0.26723 -0.26458 -0.26458 -0.26459 -0.26458 -0.26458 -0.26459 -0.26458 -0.26458 -0.26459 -0.26458 -0.26458 -0.26459 -0.26458 -0.26458 -0.26459 -0.26458 -0.26723 -0.26458 -0.26459 -0.26458 -0.26458 -0.26459 -0.26458 -0.26458 -0.26459 -0.26458 -0.26458 -0.26459 -0.26458 -0.26458 -0.26459 -0.26458 -0.26723 -0.26458 -0.26459 -0.26458 -0.26458 -0.26459 -0.26458 -0.26458 -0.26459 -0.26458 -0.26458 -0.26459 -0.26458 -0.26458 -0.26459 -0.26458 -0.26458 -0.26723 -0.26458 -0.26459 -0.26458 -0.26458 -0.26459 -0.26458 -0.26458 -0.26459 -0.26458 -0.26458 -0.26459 -0.26458 -0.26458 -0.26459 -0.26458 -0.26458 -0.26723 -0.26459 -0.26458 -0.26458 -0.26459 -0.26458 -0.26458 -0.26459 -0.26458 -0.26458 -0.26459 -0.26458 -0.26458 -0.26459 -0.26458 -0.26458 -0.26723 -0.26459 -0.26458 -0.26458 -0.26459 -0.26458 -0.26458 -0.26459 -0.26458 -0.26458 -0.26459 -0.26458 -0.26458 -0.26459 -0.26458 -0.26458 -0.26459 -0.26723 -0.26458 -0.26458 -0.26459 -0.26458 -0.26458 -0.26459 -0.26458 -0.26458 -0.26459 -0.26458 -0.26458 -0.26459 -0.26458 -0.26458 -0.26459 -0.26458 -0.26723 -0.26458 -0.26459 -0.26458 -0.26458 -0.26459 -0.26458 -0.26458 -0.26459 -0.26458 -0.26458 -0.26459 -0.26458 -0.26458 -0.26459 -0.26458 -0.26723 -0.26458 -0.26458 -0.26459 -0.26458 -0.26458 -0.26459 -0.26458 -0.26458 -0.26459 -0.26458 -0.26458 -0.26459 -0.26458 -0.26458 -0.26459 -0.26458 -0.26723 -0.26458 -0.26459 -0.26458 -0.26458 -0.26459 -0.26458 -0.26458 -0.26459 -0.26458 -0.26458 -0.26459 -0.26458 -0.26458 -0.26459 -0.26458 -0.26458 -0.26723 -0.26459 -0.26458 -0.26458 -0.26459 -0.26458 -0.26458 -0.26459 -0.26458 -0.26458 -0.26459 -0.26458 -0.26458 -0.26459 -0.26458 -0.26458 -0.26459 -0.26723 -0.26458 -0.26458 -0.26459 -0.26458 -0.26458 -0.26459 -0.26458 -0.26458 -0.26459 -0.26458 -0.26458 -0.26459 -0.26458 -0.26458 -0.26459 -0.26722 -0.26459 -0.26458 -0.26458 -0.26459 -0.26458 -0.26458 -0.26459 -0.26458 -0.26458 -0.26459 -0.26458 -0.26458 -0.26459 -0.26458 -0.26458 -0.26459 -0.26723 -0.26458 -0.26458 -0.26459 -0.26458 -0.26458 -0.26459 -0.26458 -0.26458 -0.26459 -0.26458 -0.26458 -0.26459 -0.26458 -0.26458 -0.26459 -0.26458 -0.26723 -0.26458 -0.26459 -0.26458 -0.26458 -0.26459 -0.26458 -0.26458 -0.26459 -0.26458 -0.26458 -0.26459 -0.26458 -0.26458 -0.26459 -0.26458 -0.26723 -0.26458 -0.26459 -0.26458 -0.26458 -0.26459 -0.26458 -0.26458 -0.26459 -0.26458 -0.26458 -0.26459 -0.26458 -0.26458 -0.26459 -0.26458 -0.26458 -0.26723 -0.26459 -0.26458 -0.26458 -0.26459 -0.26458 -0.26458 -0.26459 -0.26458 -0.26458 -0.26459 -0.26458 -0.26458 -0.26459 -0.26458 -0.26458 -0.26459 -0.26722 -0.26459 -0.26458 -0.26458 -0.26459 -0.26458 -0.26458 -0.26459 -0.26458 -0.26458 -0.26459 -0.26458 -0.26458 -0.26459 -0.26458 -0.26458 -0.26723 -0.26459 -0.26458 -0.26458 -0.26459 -0.26458 -0.26458 -0.26459 -0.26458 -0.26458 -0.26459 -0.26458 -0.26458 -0.26459 -0.26458 -0.26458 -0.26459 -0.26723 -0.26458 -0.26458 -0.26459 -0.26458 -0.26458 -0.26459 -0.26458 -0.26458 -0.26459 -0.26458 -0.26458 -0.26459 -0.26458 -0.26458 -0.26459 -0.26458 -0.26723 -0.26458 -0.26459 -0.26458 -0.26458 -0.26459 -0.26458 -0.26458 -0.26459 -0.26458 -0.26458 -0.26459 -0.26458 -0.26458 -0.26459 -0.26458 -0.26723 -0.26458 -0.26458 -0.26459 -0.26458 -0.26459 -0.26458 -0.26458 -0.26459 -0.26458 -0.26458 -0.26459 -0.26458 -0.26458 -0.26459 -0.26458 -0.26458 -0.26723 -0.26458 -0.26459 -0.26458 -0.26458 -0.26459 -0.26458 -0.26458 -0.26459 -0.26458 -0.26458 -0.26459 -0.26458 -0.26458 -0.26459 -0.26458 -0.26458 -0.26723 -0.26459 -0.26458 -0.26458 -0.26459 -0.26458 -0.26458 -0.26459 -0.26458 -0.26458 -0.26459 -0.26458 -0.26458 -0.26459 -0.26458 -0.26458 -0.26459 -0.26723 -0.26458 -0.26458 -0.26459 -0.26458 -0.26458 -0.26459 -0.26458 -0.26458 -0.26459 -0.26458 -0.26458 -0.26459 -0.26458 -0.26458 -0.26459 -0.26723 -0.26458 -0.26458 -0.26459 -0.26458 -0.26458 -0.26459 -0.26458 -0.26458 -0.26459 -0.26458 -0.26458 -0.26459 -0.26458 -0.26458 -0.26459 -0.26458 -0.26723 -0.26458 -0.26458 -0.26459 -0.26458 -0.26458 -0.26459 -0.26458 -0.26458 -0.26459 -0.26458 -0.26458 -0.26459 -0.26458 -0.26458 -0.26459 -0.26458 -0.26723 -0.26458 -0.26459 -0.26458 -0.26458 -0.26459 -0.26458 -0.26458 -0.26459 -0.26458 -0.26458 -0.26459 -0.26458 -0.26458 -0.26459 -0.26458 -0.26723 -0.26458 -0.26459 -0.26458 -0.26458 -0.26459 -0.26458 -0.26458 -0.26459 -0.26458 -0.26458 -0.26459 -0.26458 -0.26458 -0.26459 -0.26458 -0.26458 -0.26723 -0.26459 -0.26458 -0.26458 -0.26459 -0.26458 -0.26458 -0.26459 -0.26458 -0.26458 -0.26459 -0.26458 -0.26458 -0.26459 -0.26458 -0.26458 -0.26459 -0.26723 -0.26458 -0.26458 -0.26459 -0.26458 -0.26458 -0.26459 -0.26458 -0.26458 -0.26459 -0.26458 -0.26458 -0.26459 -0.26458 -0.26458 -0.26459 -0.26722 -0.26459 -0.26458 -0.26458 -0.26459 -0.26458 -0.26458 -0.26459 -0.26458 -0.26458 -0.26459 -0.26458 -0.26458 -0.26459 -0.26458 -0.26458 -0.26459 -0.26723 -0.26458 -0.26458 -0.26459 -0.26458 -0.26458 -0.26459 -0.26458 -0.26458 -0.26459 -0.26458 -0.26458 -0.26459 -0.26458 -0.26458 -0.26459 -0.26458 -0.26723 -0.26458 -0.26459 -0.26458 -0.26458 -0.26459 -0.26458 -0.26458 -0.26459 -0.26458 -0.26458 -0.26459 -0.26458 -0.26458 -0.26459 -0.26458 -0.26723 -0.26458 -0.26459 -0.26458 -0.26458 -0.26459 -0.26458 -0.26458 -0.26459 -0.26458 -0.26458 -0.26459 -0.26458 -0.26458 -0.26459 -0.26458 -0.26458 -0.26723 -0.26458 -0.26459 -0.26458 -0.26458 -0.26459 -0.26458 -0.26458 -0.26459 -0.26458 -0.26458 -0.26459 -0.26458 -0.26458 -0.26459 -0.26458 -0.26458 -0.26723 -0.26459 -0.26458 -0.26458 -0.26459 -0.26458 -0.264581 -0.26459 -0.26458 -0.26458 -0.26459 -0.26458 H 98.200105 97.935521 97.670938 97.406355 97.139126 96.874542 96.609959 96.345376 96.080792 95.816209 95.551626 95.287042 95.022459 94.757876 94.493292 94.228709 93.964125 93.699542 93.434959 93.170375 92.905792 92.638563 92.37398 92.109396 91.844813 91.58023 91.315646 91.051063 90.78648 90.521896 90.257313 89.99273 89.728146 89.463563 89.19898 88.934396 88.669813 88.40523 88.138 87.873417 87.608834 87.34425 87.079667 86.815084 86.5505 86.285917 86.021334 85.75675 85.492167 85.227584 84.963 84.698417 84.433834 84.16925 83.904667 83.637438 83.372854 83.108271 82.843688 82.579104 82.314521 82.049938 81.785354 81.520771 81.256188 80.991604 80.727021 80.462438 80.197854 79.933271 79.668688 79.401458 79.136875 78.872292 78.607708 78.343125 78.078542 77.813958 77.549375 77.284792 77.020208 76.755625 76.491042 76.226458 75.961875 75.697292 75.432708 75.168125 74.900896 74.636313 74.371729 74.107146 73.842562 73.577979 73.313396 73.048812 72.784229 72.519646 72.255062 71.990479 71.725896 71.461312 71.196729 70.932146 70.667562 70.400333 70.13575 69.871167 69.606583 69.342 69.077417 68.812833 68.54825 68.283667 68.019083 67.7545 67.489916 67.225333 66.96075 66.696166 66.431583 66.164354 65.899771 65.635187 65.370604 65.106021 64.841437 64.576854 64.312271 64.047687 63.783104 63.518521 63.253937 62.989354 62.724771 62.460187 62.195604 61.931021 61.663791 61.399208 61.134625 60.870041 60.605458 60.340875 60.076291 59.811708 59.547125 59.282541 59.017958 58.753375 58.488791 58.224208 57.959625 57.695041 57.430458 57.163229 56.898645 56.634062 56.369479 56.104895 55.840312 55.575729 55.311145 55.046562 54.781979 54.517395 54.252812 53.988229 53.723645 53.459062 53.194479 52.927249 52.662666 52.398083 52.133499 51.868916 51.604333 51.339749 51.075166 50.810583 50.545999 50.281416 50.016833 49.752249 49.487666 49.223083 48.958499 48.693916 48.426687 48.162104 47.89752 47.632937 47.368353 47.10377 46.839187 46.574603 46.31002 46.045437 45.780853 45.51627 45.251687 44.987103 44.72252 44.457937 44.193353 43.926124 43.661541 43.396958 43.132374 42.867791 42.603208 42.338624 42.074041 41.809458 41.544874 41.280291 41.015707 40.751124 40.486541 40.221957 39.957374 39.690145 39.425562 39.160978 38.896395 38.631812 38.367228 38.102645 37.838062 37.573478 37.308895 37.044312 36.779728 36.515145 36.250562 35.985978 35.721395 35.456812 35.189582 34.924999 34.660416 34.395832 34.131249 33.866666 33.602082 33.337499 33.072916 V 54.640599 l 0.264583,-1.093715 0.264583,-1.050512 0.264584,-0.998212 0.264583,-0.936821 0.264583,-0.85951 0.264584,-0.775378 0.264583,-0.684424 0.264583,-0.568458 0.26723,-0.461588 0.264583,-0.350172 0.264583,-0.236478 0.264584,-0.120514 0.264583,-0.0068 0.264583,0.120512 0.264584,0.227384 0.264583,0.334254 0.264583,0.434302 0.264584,0.525256 0.264583,0.61621 z"
     style="fill:#8bc522;stroke:none;stroke-width:0;stroke-linecap:round;stroke-linejoin:round;stroke-miterlimit:10;fill-opacity:1"
     id="polygon8" />
  <text
     id="text2506"
     y="281.13208"
     x="33.205208"
     style="font-size:5.82083px;line-height:125%;font-family:Corbel;-inkscape-font-specification:'Corbel, Normal';text-align:start;text-decoration:none;text-decoration-line:none;text-decoration-color:#000000;text-anchor:start;fill:#000000;stroke:none;stroke-width:0.264583;stroke-linecap:butt;stroke-linejoin:miter;stroke-opacity:1;stop-color:#000000"
     xml:space="preserve"><tspan
       id="tspan2555"
       style="font-size:5.82083px;text-align:start;text-anchor:start;fill:#000000;stroke:none;stroke-width:0.264583"
       y="281.13208"
       x="33.205208"
       sodipodi:role="line">each slot opens one week</tspan></text>
  <text
     id="text2510"
     y="281.13208"
     x="475.04514"
     style="font-size:5.82083px;line-height:125%;font-family:Corbel;-inkscape-font-specification:'Corbel, Normal';text-align:end;text-decoration:none;text-decoration-line:none;text-decoration-color:#000000;text-anchor:end;fill:#000000;stroke:none;stroke-width:0.264583;stroke-linecap:butt;stroke-linejoin:miter;stroke-opacity:1;stop-color:#000000"
     xml:space="preserve"><tspan
       style="font-size:5.82083px;text-align:end;text-anchor:end;stroke:none;stroke-width:0.264583"
       y="281.13208"
       x="475.04514"
       id="tspan2508"
       sodipodi:role="line">before it starts</tspan></text>
  <g
     inkscape:label="grid"
     id="g2625">
    <path
       style="fill:none;fill-rule:evenodd;stroke:#000000;stroke-width:0.264583px;stroke-linecap:butt;stroke-linejoin:miter;stroke-opacity:0.5"
       d="M 96.289321,69.58541 V 273.21056"
       id="path2523" />
    <path
       style="fill:none;fill-rule:evenodd;stroke:#000000;stroke-width:0.264583px;stroke-linecap:butt;stroke-linejoin:miter;stroke-opacity:0.5"
       d="M 159.37355,69.58541 V 273.21056"
       id="path2525" />
    <path
       style="fill:none;fill-rule:evenodd;stroke:#000000;stroke-width:0.264583px;stroke-linecap:butt;stroke-linejoin:miter;stroke-opacity:0.5"
       d="M 222.45777,69.58541 V 273.21056"
       id="path2527" />
    <path
       style="fill:none;fill-rule:evenodd;stroke:#000000;stroke-width:0.264583px;stroke-linecap:butt;stroke-linejoin:miter;stroke-opacity:0.5"
       d="M 285.54199,69.58541 V 273.21056"
       id="path2529" />
    <path
       style="fill:none;fill-rule:evenodd;stroke:#000000;stroke-width:0.264583px;stroke-linecap:butt;stroke-linejoin:miter;stroke-opacity:0.5"
       d="M 348.6262,69.58541 V 273.21056"
       id="path2531" />
    <path
       style="fill:none;fill-rule:evenodd;stroke:#000000;stroke-width:0.264583px;stroke-linecap:butt;stroke-linejoin:miter;stroke-opacity:0.5"
       d="M 411.7104,69.58541 V 273.21056"
       id="path2533" />
  </g>
</svg>
